<svg width="216" height="60" viewBox="0 0 216 60" fill="none" xmlns="http://www.w3.org/2000/svg">
<g filter="url(#filter0_d_32_128)">
<mask id="path-2-outside-1_32_128" maskUnits="userSpaceOnUse" x="5" y="12" width="103" height="41" fill="black">
<rect fill="white" x="5" y="12" width="103" height="41"/>
<path d="M13.9953 51C13.537 51 13.3078 50.7708 13.3078 50.3125V21.6575H8.49531C8.03698 21.6575 7.80781 21.4283 7.80781 20.97V15.03C7.80781 14.5717 8.03698 14.3425 8.49531 14.3425H27.2778C27.7361 14.3425 27.9653 14.5717 27.9653 15.03V20.97C27.9653 21.4283 27.7361 21.6575 27.2778 21.6575H22.4653V50.3125C22.4653 50.7708 22.2361 51 21.7778 51H13.9953ZM46.8759 51C46.6925 51 46.4909 50.9725 46.2709 50.9175C46.0692 50.8625 45.8767 50.8167 45.6934 50.78L40.7984 49.57L35.1884 47.7C34.6384 47.5167 34.3634 46.985 34.3634 46.105V27.8175C34.3634 27.3775 34.5192 27.0108 34.8309 26.7175L40.3309 21.2175C40.6425 20.9058 41.0092 20.75 41.4309 20.75H50.2309C50.6525 20.75 51.0192 20.9058 51.3309 21.2175L56.8309 26.7175C57.1425 27.0108 57.2984 27.3775 57.2984 27.8175V39.0925H42.5309L42.3384 42.75L46.2434 44.0425L53.2559 44.5375C53.5675 44.5925 53.7234 44.8033 53.7234 45.17V50.3125C53.7234 50.7708 53.4942 51 53.0359 51H46.8759ZM45.7759 34.775H46.2984C47.1967 34.775 47.9117 34.4358 48.4434 33.7575C48.9934 33.0792 49.2684 32.1625 49.2684 31.0075V30.4575C49.2684 29.3208 48.9934 28.4133 48.4434 27.735C47.9117 27.0567 47.1967 26.7175 46.2984 26.7175H45.7484C44.8684 26.7175 44.1625 27.0567 43.6309 27.735C43.1175 28.4133 42.8609 29.3208 42.8609 30.4575V31.0075C42.8609 32.1625 43.1175 33.0792 43.6309 33.7575C44.1625 34.4358 44.8775 34.775 45.7759 34.775ZM71.9602 51C71.5935 51 71.2268 50.8808 70.8602 50.6425L66.3777 47.6175L63.2977 42.6675C63.1693 42.4292 63.0593 42.2733 62.9677 42.2C62.876 42.1083 62.8302 41.925 62.8302 41.65V30.1C62.8302 29.825 62.8668 29.6417 62.9402 29.55C63.0135 29.4583 63.1327 29.2933 63.2977 29.055L66.1027 24.38L70.8602 21.1075C71.0252 20.9975 71.1902 20.915 71.3552 20.86C71.5202 20.7867 71.7218 20.75 71.9602 20.75H76.7177C77.176 20.75 77.4052 20.9792 77.4052 21.4375V26.58C77.4052 26.7267 77.3868 26.8825 77.3502 27.0475C77.3318 27.2125 77.2493 27.3408 77.1027 27.4325L73.9677 29L71.5477 32.1625V39.505L74.1052 42.42L77.1027 44.3175C77.286 44.4275 77.3777 44.565 77.3777 44.73C77.396 44.8767 77.4052 45.0233 77.4052 45.17V50.3125C77.4052 50.7708 77.176 51 76.7177 51H71.9602ZM83.5832 51C83.1249 51 82.8957 50.7708 82.8957 50.3125V15.03C82.8957 14.5717 83.1249 14.3425 83.5832 14.3425H90.9257C91.384 14.3425 91.6132 14.5717 91.6132 15.03V20.75H98.2957C98.7174 20.75 99.084 20.9058 99.3957 21.2175L104.896 26.7175C105.207 27.0108 105.363 27.3775 105.363 27.8175V50.3125C105.363 50.7708 105.134 51 104.676 51H97.3332C96.8749 51 96.6457 50.7708 96.6457 50.3125V28.78C96.6457 28.01 96.2607 27.625 95.4907 27.625H91.6132V50.3125C91.6132 50.7708 91.384 51 90.9257 51H83.5832Z"/>
</mask>
<path d="M13.9953 51C13.537 51 13.3078 50.7708 13.3078 50.3125V21.6575H8.49531C8.03698 21.6575 7.80781 21.4283 7.80781 20.97V15.03C7.80781 14.5717 8.03698 14.3425 8.49531 14.3425H27.2778C27.7361 14.3425 27.9653 14.5717 27.9653 15.03V20.97C27.9653 21.4283 27.7361 21.6575 27.2778 21.6575H22.4653V50.3125C22.4653 50.7708 22.2361 51 21.7778 51H13.9953ZM46.8759 51C46.6925 51 46.4909 50.9725 46.2709 50.9175C46.0692 50.8625 45.8767 50.8167 45.6934 50.78L40.7984 49.57L35.1884 47.7C34.6384 47.5167 34.3634 46.985 34.3634 46.105V27.8175C34.3634 27.3775 34.5192 27.0108 34.8309 26.7175L40.3309 21.2175C40.6425 20.9058 41.0092 20.75 41.4309 20.75H50.2309C50.6525 20.75 51.0192 20.9058 51.3309 21.2175L56.8309 26.7175C57.1425 27.0108 57.2984 27.3775 57.2984 27.8175V39.0925H42.5309L42.3384 42.75L46.2434 44.0425L53.2559 44.5375C53.5675 44.5925 53.7234 44.8033 53.7234 45.17V50.3125C53.7234 50.7708 53.4942 51 53.0359 51H46.8759ZM45.7759 34.775H46.2984C47.1967 34.775 47.9117 34.4358 48.4434 33.7575C48.9934 33.0792 49.2684 32.1625 49.2684 31.0075V30.4575C49.2684 29.3208 48.9934 28.4133 48.4434 27.735C47.9117 27.0567 47.1967 26.7175 46.2984 26.7175H45.7484C44.8684 26.7175 44.1625 27.0567 43.6309 27.735C43.1175 28.4133 42.8609 29.3208 42.8609 30.4575V31.0075C42.8609 32.1625 43.1175 33.0792 43.6309 33.7575C44.1625 34.4358 44.8775 34.775 45.7759 34.775ZM71.9602 51C71.5935 51 71.2268 50.8808 70.8602 50.6425L66.3777 47.6175L63.2977 42.6675C63.1693 42.4292 63.0593 42.2733 62.9677 42.2C62.876 42.1083 62.8302 41.925 62.8302 41.65V30.1C62.8302 29.825 62.8668 29.6417 62.9402 29.55C63.0135 29.4583 63.1327 29.2933 63.2977 29.055L66.1027 24.38L70.8602 21.1075C71.0252 20.9975 71.1902 20.915 71.3552 20.86C71.5202 20.7867 71.7218 20.75 71.9602 20.75H76.7177C77.176 20.75 77.4052 20.9792 77.4052 21.4375V26.58C77.4052 26.7267 77.3868 26.8825 77.3502 27.0475C77.3318 27.2125 77.2493 27.3408 77.1027 27.4325L73.9677 29L71.5477 32.1625V39.505L74.1052 42.42L77.1027 44.3175C77.286 44.4275 77.3777 44.565 77.3777 44.73C77.396 44.8767 77.4052 45.0233 77.4052 45.17V50.3125C77.4052 50.7708 77.176 51 76.7177 51H71.9602ZM83.5832 51C83.1249 51 82.8957 50.7708 82.8957 50.3125V15.03C82.8957 14.5717 83.1249 14.3425 83.5832 14.3425H90.9257C91.384 14.3425 91.6132 14.5717 91.6132 15.03V20.75H98.2957C98.7174 20.75 99.084 20.9058 99.3957 21.2175L104.896 26.7175C105.207 27.0108 105.363 27.3775 105.363 27.8175V50.3125C105.363 50.7708 105.134 51 104.676 51H97.3332C96.8749 51 96.6457 50.7708 96.6457 50.3125V28.78C96.6457 28.01 96.2607 27.625 95.4907 27.625H91.6132V50.3125C91.6132 50.7708 91.384 51 90.9257 51H83.5832Z" fill="white"/>
<path d="M13.3078 21.6575H15.3078V19.6575H13.3078V21.6575ZM22.4653 21.6575V19.6575H20.4653V21.6575H22.4653ZM13.9953 51V49C14.0744 49 14.5011 49.0211 14.8939 49.4139C15.2867 49.8067 15.3078 50.2334 15.3078 50.3125H13.3078H11.3078C11.3078 50.85 11.4435 51.6204 12.0655 52.2423C12.6874 52.8643 13.4579 53 13.9953 53V51ZM13.3078 50.3125H15.3078V21.6575H13.3078H11.3078V50.3125H13.3078ZM13.3078 21.6575V19.6575H8.49531V21.6575V23.6575H13.3078V21.6575ZM8.49531 21.6575V19.6575C8.57444 19.6575 9.00112 19.6786 9.3939 20.0714C9.78668 20.4642 9.80781 20.8909 9.80781 20.97H7.80781H5.80781C5.80781 21.5075 5.94353 22.2779 6.56547 22.8998C7.18742 23.5218 7.95786 23.6575 8.49531 23.6575V21.6575ZM7.80781 20.97H9.80781V15.03H7.80781H5.80781V20.97H7.80781ZM7.80781 15.03H9.80781C9.80781 15.1091 9.78668 15.5358 9.3939 15.9286C9.00112 16.3214 8.57444 16.3425 8.49531 16.3425V14.3425V12.3425C7.95786 12.3425 7.18742 12.4782 6.56547 13.1002C5.94353 13.7221 5.80781 14.4925 5.80781 15.03H7.80781ZM8.49531 14.3425V16.3425H27.2778V14.3425V12.3425H8.49531V14.3425ZM27.2778 14.3425V16.3425C27.1987 16.3425 26.772 16.3214 26.3792 15.9286C25.9864 15.5358 25.9653 15.1091 25.9653 15.03H27.9653H29.9653C29.9653 14.4925 29.8296 13.7221 29.2077 13.1002C28.5857 12.4782 27.8153 12.3425 27.2778 12.3425V14.3425ZM27.9653 15.03H25.9653V20.97H27.9653H29.9653V15.03H27.9653ZM27.9653 20.97H25.9653C25.9653 20.8909 25.9864 20.4642 26.3792 20.0714C26.772 19.6786 27.1987 19.6575 27.2778 19.6575V21.6575V23.6575C27.8153 23.6575 28.5857 23.5218 29.2077 22.8998C29.8296 22.2779 29.9653 21.5075 29.9653 20.97H27.9653ZM27.2778 21.6575V19.6575H22.4653V21.6575V23.6575H27.2778V21.6575ZM22.4653 21.6575H20.4653V50.3125H22.4653H24.4653V21.6575H22.4653ZM22.4653 50.3125H20.4653C20.4653 50.2334 20.4865 49.8067 20.8792 49.4139C21.272 49.0211 21.6987 49 21.7778 49V51V53C22.3153 53 23.0857 52.8643 23.7077 52.2423C24.3296 51.6204 24.4653 50.85 24.4653 50.3125H22.4653ZM21.7778 51V49H13.9953V51V53H21.7778V51ZM46.2709 50.9175L45.7446 52.847L45.7651 52.8526L45.7858 52.8578L46.2709 50.9175ZM45.6934 50.78L45.2134 52.7216L45.2571 52.7323L45.3011 52.7412L45.6934 50.78ZM40.7984 49.57L40.1659 51.4674L40.2413 51.4925L40.3184 51.5116L40.7984 49.57ZM35.1884 47.7L34.5559 49.5974L35.1884 47.7ZM34.8309 26.7175L36.2016 28.1739L36.2237 28.1531L36.2451 28.1317L34.8309 26.7175ZM40.3309 21.2175L38.9166 19.8033L38.9166 19.8033L40.3309 21.2175ZM51.3309 21.2175L52.7451 19.8033L51.3309 21.2175ZM56.8309 26.7175L55.4166 28.1317L55.4381 28.1531L55.4601 28.1739L56.8309 26.7175ZM57.2984 39.0925V41.0925H59.2984V39.0925H57.2984ZM42.5309 39.0925V37.0925H40.6334L40.5336 38.9874L42.5309 39.0925ZM42.3384 42.75L40.3411 42.6449L40.2609 44.1691L41.7099 44.6487L42.3384 42.75ZM46.2434 44.0425L45.6149 45.9412L45.8527 46.0199L46.1025 46.0375L46.2434 44.0425ZM53.2559 44.5375L53.6034 42.5679L53.5007 42.5498L53.3967 42.5425L53.2559 44.5375ZM48.4434 33.7575L46.8898 32.4979L46.8794 32.5107L46.8692 32.5237L48.4434 33.7575ZM48.4434 27.735L46.8692 28.9688L46.8794 28.9818L46.8898 28.9946L48.4434 27.735ZM43.6309 27.735L42.0567 26.5012L42.0463 26.5146L42.036 26.5281L43.6309 27.735ZM43.6309 33.7575L42.036 34.9644L42.0463 34.9779L42.0567 34.9913L43.6309 33.7575ZM46.8759 51V49C46.8892 49 46.8531 49.0015 46.7559 48.9772L46.2709 50.9175L45.7858 52.8578C46.1286 52.9435 46.4958 53 46.8759 53V51ZM46.2709 50.9175L46.7971 48.988C46.5562 48.9223 46.3188 48.8655 46.0856 48.8188L45.6934 50.78L45.3011 52.7412C45.4346 52.7678 45.5822 52.8027 45.7446 52.847L46.2709 50.9175ZM45.6934 50.78L46.1733 48.8384L41.2783 47.6284L40.7984 49.57L40.3184 51.5116L45.2134 52.7216L45.6934 50.78ZM40.7984 49.57L41.4308 47.6726L35.8208 45.8026L35.1884 47.7L34.5559 49.5974L40.1659 51.4674L40.7984 49.57ZM35.1884 47.7L35.8208 45.8026C35.9166 45.8346 36.03 45.8928 36.1373 45.9858C36.2436 46.0779 36.3095 46.1743 36.346 46.2449C36.4082 46.3651 36.3634 46.3643 36.3634 46.105H34.3634H32.3634C32.3634 46.7257 32.456 47.4307 32.7932 48.0826C33.1614 48.7944 33.7691 49.3351 34.5559 49.5974L35.1884 47.7ZM34.3634 46.105H36.3634V27.8175H34.3634H32.3634V46.105H34.3634ZM34.3634 27.8175H36.3634C36.3634 27.8381 36.3586 27.906 36.3209 27.9948C36.2826 28.0848 36.2322 28.1451 36.2016 28.1739L34.8309 26.7175L33.4601 25.2611C32.7343 25.9442 32.3634 26.8435 32.3634 27.8175H34.3634ZM34.8309 26.7175L36.2451 28.1317L41.7451 22.6317L40.3309 21.2175L38.9166 19.8033L33.4166 25.3033L34.8309 26.7175ZM40.3309 21.2175L41.7451 22.6317C41.7388 22.6379 41.6985 22.675 41.6219 22.7075C41.5436 22.7408 41.4729 22.75 41.4309 22.75V20.75V18.75C40.4526 18.75 39.5845 19.1355 38.9166 19.8033L40.3309 21.2175ZM41.4309 20.75V22.75H50.2309V20.75V18.75H41.4309V20.75ZM50.2309 20.75V22.75C50.1888 22.75 50.1182 22.7408 50.0398 22.7075C49.9632 22.675 49.9229 22.6379 49.9166 22.6317L51.3309 21.2175L52.7451 19.8033C52.0773 19.1355 51.2091 18.75 50.2309 18.75V20.75ZM51.3309 21.2175L49.9166 22.6317L55.4166 28.1317L56.8309 26.7175L58.2451 25.3033L52.7451 19.8033L51.3309 21.2175ZM56.8309 26.7175L55.4601 28.1739C55.4295 28.1451 55.3791 28.0848 55.3408 27.9948C55.3031 27.906 55.2984 27.8381 55.2984 27.8175H57.2984H59.2984C59.2984 26.8435 58.9274 25.9442 58.2016 25.2611L56.8309 26.7175ZM57.2984 27.8175H55.2984V39.0925H57.2984H59.2984V27.8175H57.2984ZM57.2984 39.0925V37.0925H42.5309V39.0925V41.0925H57.2984V39.0925ZM42.5309 39.0925L40.5336 38.9874L40.3411 42.6449L42.3384 42.75L44.3356 42.8551L44.5281 39.1976L42.5309 39.0925ZM42.3384 42.75L41.7099 44.6487L45.6149 45.9412L46.2434 44.0425L46.8718 42.1438L42.9668 40.8513L42.3384 42.75ZM46.2434 44.0425L46.1025 46.0375L53.115 46.5325L53.2559 44.5375L53.3967 42.5425L46.3842 42.0475L46.2434 44.0425ZM53.2559 44.5375L52.9083 46.5071C52.6702 46.465 52.2858 46.3148 51.9981 45.9257C51.738 45.5737 51.7234 45.2484 51.7234 45.17H53.7234H55.7234C55.7234 44.7249 55.6308 44.1108 55.2148 43.5481C54.7713 42.9481 54.1532 42.665 53.6034 42.5679L53.2559 44.5375ZM53.7234 45.17H51.7234V50.3125H53.7234H55.7234V45.17H53.7234ZM53.7234 50.3125H51.7234C51.7234 50.2334 51.7445 49.8067 52.1373 49.4139C52.53 49.0211 52.9567 49 53.0359 49V51V53C53.5733 53 54.3438 52.8643 54.9657 52.2423C55.5876 51.6204 55.7234 50.85 55.7234 50.3125H53.7234ZM53.0359 51V49H46.8759V51V53H53.0359V51ZM45.7759 34.775V36.775H46.2984V34.775V32.775H45.7759V34.775ZM46.2984 34.775V36.775C47.781 36.775 49.0884 36.1766 50.0175 34.9913L48.4434 33.7575L46.8692 32.5237C46.735 32.6951 46.6124 32.775 46.2984 32.775V34.775ZM48.4434 33.7575L49.9969 35.0171C50.9173 33.882 51.2684 32.4724 51.2684 31.0075H49.2684H47.2684C47.2684 31.8526 47.0695 32.2764 46.8898 32.4979L48.4434 33.7575ZM49.2684 31.0075H51.2684V30.4575H49.2684H47.2684V31.0075H49.2684ZM49.2684 30.4575H51.2684C51.2684 29.0021 50.913 27.6053 49.9969 26.4754L48.4434 27.735L46.8898 28.9946C47.0737 29.2214 47.2684 29.6396 47.2684 30.4575H49.2684ZM48.4434 27.735L50.0175 26.5012C49.0884 25.3159 47.781 24.7175 46.2984 24.7175V26.7175V28.7175C46.6124 28.7175 46.735 28.7974 46.8692 28.9688L48.4434 27.735ZM46.2984 26.7175V24.7175H45.7484V26.7175V28.7175H46.2984V26.7175ZM45.7484 26.7175V24.7175C44.2689 24.7175 42.9768 25.3274 42.0567 26.5012L43.6309 27.735L45.205 28.9688C45.3483 28.7859 45.4678 28.7175 45.7484 28.7175V26.7175ZM43.6309 27.735L42.036 26.5281C41.1838 27.6543 40.8609 29.0306 40.8609 30.4575H42.8609H44.8609C44.8609 29.611 45.0513 29.1723 45.2257 28.9419L43.6309 27.735ZM42.8609 30.4575H40.8609V31.0075H42.8609H44.8609V30.4575H42.8609ZM42.8609 31.0075H40.8609C40.8609 32.4442 41.18 33.8332 42.036 34.9644L43.6309 33.7575L45.2257 32.5506C45.0551 32.3252 44.8609 31.8808 44.8609 31.0075H42.8609ZM43.6309 33.7575L42.0567 34.9913C42.9858 36.1766 44.2932 36.775 45.7759 36.775V34.775V32.775C45.4619 32.775 45.3393 32.6951 45.205 32.5237L43.6309 33.7575ZM70.8602 50.6425L69.7414 52.3003L69.7557 52.31L69.7702 52.3194L70.8602 50.6425ZM66.3777 47.6175L64.6795 48.6741L64.9051 49.0365L65.2589 49.2753L66.3777 47.6175ZM63.2977 42.6675L61.5367 43.6157L61.5664 43.6709L61.5995 43.7241L63.2977 42.6675ZM62.9677 42.2L61.5534 43.6142L61.6318 43.6925L61.7183 43.7617L62.9677 42.2ZM63.2977 29.055L64.942 30.1934L64.9791 30.1399L65.0126 30.084L63.2977 29.055ZM66.1027 24.38L64.9692 22.7322L64.6112 22.9784L64.3877 23.351L66.1027 24.38ZM70.8602 21.1075L69.7508 19.4434L69.7387 19.4515L69.7267 19.4597L70.8602 21.1075ZM71.3552 20.86L71.9876 22.7574L72.0792 22.7268L72.1674 22.6876L71.3552 20.86ZM77.3502 27.0475L75.3978 26.6136L75.3743 26.7192L75.3624 26.8266L77.3502 27.0475ZM77.1027 27.4325L77.9971 29.2214L78.0821 29.1789L78.1627 29.1285L77.1027 27.4325ZM73.9677 29L73.0732 27.2111L72.6601 27.4177L72.3793 27.7846L73.9677 29ZM71.5477 32.1625L69.9593 30.9471L69.5477 31.4851V32.1625H71.5477ZM71.5477 39.505H69.5477V40.258L70.0443 40.824L71.5477 39.505ZM74.1052 42.42L72.6018 43.739L72.7919 43.9557L73.0354 44.1099L74.1052 42.42ZM77.1027 44.3175L76.0329 46.0074L76.0531 46.0202L76.0737 46.0325L77.1027 44.3175ZM77.3777 44.73H75.3777V44.8545L75.3931 44.9781L77.3777 44.73ZM71.9602 51V49C71.9773 49 71.993 49.0014 72.006 49.0036C72.0188 49.0056 72.0265 49.008 72.0283 49.0086C72.032 49.0097 72.006 49.0019 71.9501 48.9656L70.8602 50.6425L69.7702 52.3194C70.3979 52.7274 71.1373 53 71.9602 53V51ZM70.8602 50.6425L71.9789 48.9847L67.4964 45.9597L66.3777 47.6175L65.2589 49.2753L69.7414 52.3003L70.8602 50.6425ZM66.3777 47.6175L68.0758 46.5609L64.9958 41.6109L63.2977 42.6675L61.5995 43.7241L64.6795 48.6741L66.3777 47.6175ZM63.2977 42.6675L65.0586 41.7193C64.9267 41.4743 64.6557 40.9892 64.217 40.6383L62.9677 42.2L61.7183 43.7617C61.628 43.6896 61.5686 43.626 61.5384 43.5917C61.5066 43.5556 61.489 43.5309 61.485 43.5252C61.4788 43.5165 61.4963 43.5407 61.5367 43.6157L63.2977 42.6675ZM62.9677 42.2L64.3819 40.7858C64.6838 41.0877 64.7776 41.3998 64.8048 41.5087C64.8351 41.6296 64.8302 41.691 64.8302 41.65H62.8302H60.8302C60.8302 41.884 60.8482 42.1745 60.9242 42.4788C60.9973 42.771 61.1599 43.2206 61.5534 43.6142L62.9677 42.2ZM62.8302 41.65H64.8302V30.1H62.8302H60.8302V41.65H62.8302ZM62.8302 30.1H64.8302C64.8302 30.0388 64.8353 30.0661 64.8188 30.1485C64.8099 30.1928 64.7906 30.2747 64.749 30.3787C64.7079 30.4814 64.6335 30.6349 64.5019 30.7994L62.9402 29.55L61.3784 28.3006C61.0577 28.7015 60.9442 29.1253 60.8965 29.364C60.8434 29.6297 60.8302 29.8862 60.8302 30.1H62.8302ZM62.9402 29.55L64.5019 30.7994C64.6233 30.6476 64.7778 30.4307 64.942 30.1934L63.2977 29.055L61.6533 27.9166C61.4876 28.1559 61.4037 28.269 61.3784 28.3006L62.9402 29.55ZM63.2977 29.055L65.0126 30.084L67.8176 25.409L66.1027 24.38L64.3877 23.351L61.5827 28.026L63.2977 29.055ZM66.1027 24.38L67.2361 26.0278L71.9936 22.7553L70.8602 21.1075L69.7267 19.4597L64.9692 22.7322L66.1027 24.38ZM70.8602 21.1075L71.9696 22.7716C72.0069 22.7467 72.0129 22.7489 71.9876 22.7574L71.3552 20.86L70.7227 18.9626C70.3674 19.0811 70.0434 19.2483 69.7508 19.4434L70.8602 21.1075ZM71.3552 20.86L72.1674 22.6876C72.0089 22.7581 71.9164 22.75 71.9602 22.75V20.75V18.75C71.5272 18.75 71.0315 18.8152 70.5429 19.0324L71.3552 20.86ZM71.9602 20.75V22.75H76.7177V20.75V18.75H71.9602V20.75ZM76.7177 20.75V22.75C76.6385 22.75 76.2118 22.7289 75.8191 22.3361C75.4263 21.9433 75.4052 21.5166 75.4052 21.4375H77.4052H79.4052C79.4052 20.9 79.2694 20.1296 78.6475 19.5077C78.0256 18.8857 77.2551 18.75 76.7177 18.75V20.75ZM77.4052 21.4375H75.4052V26.58H77.4052H79.4052V21.4375H77.4052ZM77.4052 26.58H75.4052C75.4052 26.5606 75.4075 26.57 75.3978 26.6136L77.3502 27.0475L79.3025 27.4814C79.3662 27.195 79.4052 26.8927 79.4052 26.58H77.4052ZM77.3502 27.0475L75.3624 26.8266C75.3842 26.6301 75.4523 26.4036 75.5922 26.186C75.7306 25.9707 75.8993 25.8261 76.0427 25.7365L77.1027 27.4325L78.1627 29.1285C78.8027 28.7285 79.2489 28.0699 79.3379 27.2684L77.3502 27.0475ZM77.1027 27.4325L76.2082 25.6436L73.0732 27.2111L73.9677 29L74.8621 30.7889L77.9971 29.2214L77.1027 27.4325ZM73.9677 29L72.3793 27.7846L69.9593 30.9471L71.5477 32.1625L73.136 33.3779L75.556 30.2154L73.9677 29ZM71.5477 32.1625H69.5477V39.505H71.5477H73.5477V32.1625H71.5477ZM71.5477 39.505L70.0443 40.824L72.6018 43.739L74.1052 42.42L75.6086 41.101L73.051 38.186L71.5477 39.505ZM74.1052 42.42L73.0354 44.1099L76.0329 46.0074L77.1027 44.3175L78.1724 42.6276L75.1749 40.7301L74.1052 42.42ZM77.1027 44.3175L76.0737 46.0325C75.9832 45.9782 75.8041 45.8514 75.6448 45.6125C75.472 45.3533 75.3777 45.043 75.3777 44.73H77.3777H79.3777C79.3777 43.6539 78.7139 42.9519 78.1316 42.6025L77.1027 44.3175ZM77.3777 44.73L75.3931 44.9781C75.4012 45.0431 75.4052 45.1069 75.4052 45.17H77.4052H79.4052C79.4052 44.9398 79.3908 44.7102 79.3622 44.4819L77.3777 44.73ZM77.4052 45.17H75.4052V50.3125H77.4052H79.4052V45.17H77.4052ZM77.4052 50.3125H75.4052C75.4052 50.2334 75.4263 49.8067 75.8191 49.4139C76.2118 49.0211 76.6385 49 76.7177 49V51V53C77.2551 53 78.0256 52.8643 78.6475 52.2423C79.2694 51.6204 79.4052 50.85 79.4052 50.3125H77.4052ZM76.7177 51V49H71.9602V51V53H76.7177V51ZM91.6132 20.75H89.6132V22.75H91.6132V20.75ZM99.3957 21.2175L100.81 19.8033L100.81 19.8033L99.3957 21.2175ZM104.896 26.7175L103.481 28.1317L103.503 28.1531L103.525 28.1739L104.896 26.7175ZM91.6132 27.625V25.625H89.6132V27.625H91.6132ZM83.5832 51V49C83.6623 49 84.089 49.0211 84.4818 49.4139C84.8746 49.8067 84.8957 50.2334 84.8957 50.3125H82.8957H80.8957C80.8957 50.85 81.0314 51.6204 81.6534 52.2423C82.2753 52.8643 83.0457 53 83.5832 53V51ZM82.8957 50.3125H84.8957V15.03H82.8957H80.8957V50.3125H82.8957ZM82.8957 15.03H84.8957C84.8957 15.1091 84.8746 15.5358 84.4818 15.9286C84.089 16.3214 83.6623 16.3425 83.5832 16.3425V14.3425V12.3425C83.0457 12.3425 82.2753 12.4782 81.6534 13.1002C81.0314 13.7221 80.8957 14.4925 80.8957 15.03H82.8957ZM83.5832 14.3425V16.3425H90.9257V14.3425V12.3425H83.5832V14.3425ZM90.9257 14.3425V16.3425C90.8466 16.3425 90.4199 16.3214 90.0271 15.9286C89.6343 15.5358 89.6132 15.1091 89.6132 15.03H91.6132H93.6132C93.6132 14.4925 93.4775 13.7221 92.8555 13.1002C92.2336 12.4782 91.4632 12.3425 90.9257 12.3425V14.3425ZM91.6132 15.03H89.6132V20.75H91.6132H93.6132V15.03H91.6132ZM91.6132 20.75V22.75H98.2957V20.75V18.75H91.6132V20.75ZM98.2957 20.75V22.75C98.2537 22.75 98.183 22.7408 98.1047 22.7075C98.0281 22.675 97.9877 22.6379 97.9815 22.6317L99.3957 21.2175L100.81 19.8033C100.142 19.1355 99.274 18.75 98.2957 18.75V20.75ZM99.3957 21.2175L97.9815 22.6317L103.481 28.1317L104.896 26.7175L106.31 25.3033L100.81 19.8033L99.3957 21.2175ZM104.896 26.7175L103.525 28.1739C103.494 28.1451 103.444 28.0848 103.406 27.9948C103.368 27.906 103.363 27.8381 103.363 27.8175H105.363H107.363C107.363 26.8435 106.992 25.9442 106.266 25.2611L104.896 26.7175ZM105.363 27.8175H103.363V50.3125H105.363H107.363V27.8175H105.363ZM105.363 50.3125H103.363C103.363 50.2334 103.384 49.8067 103.777 49.4139C104.17 49.0211 104.597 49 104.676 49V51V53C105.213 53 105.984 52.8643 106.606 52.2423C107.227 51.6204 107.363 50.85 107.363 50.3125H105.363ZM104.676 51V49H97.3332V51V53H104.676V51ZM97.3332 51V49C97.4123 49 97.839 49.0211 98.2318 49.4139C98.6246 49.8067 98.6457 50.2334 98.6457 50.3125H96.6457H94.6457C94.6457 50.85 94.7814 51.6204 95.4034 52.2423C96.0253 52.8643 96.7957 53 97.3332 53V51ZM96.6457 50.3125H98.6457V28.78H96.6457H94.6457V50.3125H96.6457ZM96.6457 28.78H98.6457C98.6457 28.0867 98.471 27.1994 97.7712 26.4995C97.0713 25.7997 96.184 25.625 95.4907 25.625V27.625V29.625C95.5674 29.625 95.2576 29.6428 94.9427 29.328C94.6279 29.0131 94.6457 28.7033 94.6457 28.78H96.6457ZM95.4907 27.625V25.625H91.6132V27.625V29.625H95.4907V27.625ZM91.6132 27.625H89.6132V50.3125H91.6132H93.6132V27.625H91.6132ZM91.6132 50.3125H89.6132C89.6132 50.2334 89.6343 49.8067 90.0271 49.4139C90.4199 49.0211 90.8466 49 90.9257 49V51V53C91.4632 53 92.2336 52.8643 92.8555 52.2423C93.4775 51.6204 93.6132 50.85 93.6132 50.3125H91.6132ZM90.9257 51V49H83.5832V51V53H90.9257V51Z" fill="#181F5A" mask="url(#path-2-outside-1_32_128)"/>
<path d="M115.738 51C115.28 51 115.051 50.7708 115.051 50.3125V15.03C115.051 14.5717 115.28 14.3425 115.738 14.3425H131.358C131.798 14.3425 132.165 14.4892 132.458 14.7825L137.958 20.2825C138.27 20.5942 138.426 20.9608 138.426 21.3825V50.3125C138.426 50.7708 138.197 51 137.738 51H129.956C129.498 51 129.268 50.7708 129.268 50.3125V21.6575H124.208V50.3125C124.208 50.7708 123.979 51 123.521 51H115.738ZM157.342 51C157.158 51 156.957 50.9725 156.737 50.9175C156.535 50.8625 156.343 50.8167 156.159 50.78L151.264 49.57L145.654 47.7C145.104 47.5167 144.829 46.985 144.829 46.105V27.8175C144.829 27.3775 144.985 27.0108 145.297 26.7175L150.797 21.2175C151.108 20.9058 151.475 20.75 151.897 20.75H160.697C161.118 20.75 161.485 20.9058 161.797 21.2175L167.297 26.7175C167.608 27.0108 167.764 27.3775 167.764 27.8175V39.0925H152.997L152.804 42.75L156.709 44.0425L163.722 44.5375C164.033 44.5925 164.189 44.8033 164.189 45.17V50.3125C164.189 50.7708 163.96 51 163.502 51H157.342ZM156.242 34.775H156.764C157.663 34.775 158.378 34.4358 158.909 33.7575C159.459 33.0792 159.734 32.1625 159.734 31.0075V30.4575C159.734 29.3208 159.459 28.4133 158.909 27.735C158.378 27.0567 157.663 26.7175 156.764 26.7175H156.214C155.334 26.7175 154.628 27.0567 154.097 27.735C153.583 28.4133 153.327 29.3208 153.327 30.4575V31.0075C153.327 32.1625 153.583 33.0792 154.097 33.7575C154.628 34.4358 155.343 34.775 156.242 34.775ZM173.323 51C172.865 51 172.636 50.7708 172.636 50.3125V45.8575C172.636 45.4358 172.773 45.1608 173.048 45.0325L178.658 41.705V38.845L173.048 35.82C172.773 35.655 172.636 35.3708 172.636 34.9675V26.195C172.636 25.9933 172.663 25.8283 172.718 25.7C172.792 25.5717 172.893 25.4617 173.021 25.37L178.878 21.08C179.08 20.9333 179.245 20.8417 179.373 20.805C179.502 20.7683 179.63 20.75 179.758 20.75H186.441C186.899 20.75 187.128 20.9792 187.128 21.4375V25.755C187.128 26.0667 187.101 26.2775 187.046 26.3875C187.009 26.4975 186.918 26.5892 186.771 26.6625L181.573 29.4675V32.6575L187.128 35.4075C187.44 35.5358 187.596 35.8108 187.596 36.2325V44.675C187.596 45.1333 187.44 45.5 187.128 45.775L181.271 50.6425C180.978 50.8808 180.611 51 180.171 51H173.323ZM199.687 51C199.265 51 198.898 50.8442 198.587 50.5325L193.994 45.9675C193.701 45.6558 193.554 45.2892 193.554 44.8675V27.1575H192.399C191.941 27.1575 191.712 26.9283 191.712 26.47V21.4375C191.712 20.9792 191.941 20.75 192.399 20.75H193.554V17.3125C193.554 16.8542 193.783 16.625 194.242 16.625H201.557C202.015 16.625 202.244 16.8542 202.244 17.3125V20.75H204.912C205.37 20.75 205.599 20.9792 205.599 21.4375V26.47C205.599 26.9283 205.37 27.1575 204.912 27.1575H202.244V41.8425C202.244 42.1908 202.354 42.475 202.574 42.695L205.269 45.4175C205.452 45.5825 205.544 45.8575 205.544 46.2425V50.3125C205.544 50.7708 205.315 51 204.857 51H199.687Z" fill="#181F5A"/>
</g>
<defs>
<filter id="filter0_d_32_128" x="-2.6" y="0" width="221.2" height="66.6" filterUnits="userSpaceOnUse" color-interpolation-filters="sRGB">
<feFlood flood-opacity="0" result="BackgroundImageFix"/>
<feColorMatrix in="SourceAlpha" type="matrix" values="0 0 0 0 0 0 0 0 0 0 0 0 0 0 0 0 0 0 127 0" result="hardAlpha"/>
<feOffset dy="4"/>
<feGaussianBlur stdDeviation="1.3"/>
<feComposite in2="hardAlpha" operator="out"/>
<feColorMatrix type="matrix" values="0 0 0 0 0 0 0 0 0 0 0 0 0 0 0 0 0 0 0.39 0"/>
<feBlend mode="normal" in2="BackgroundImageFix" result="effect1_dropShadow_32_128"/>
<feBlend mode="normal" in="SourceGraphic" in2="effect1_dropShadow_32_128" result="shape"/>
</filter>
</defs>
</svg>
